<?xml version="1.0" encoding="UTF-8"?><svg id="Layer_2" xmlns="http://www.w3.org/2000/svg" viewBox="0 0 771.01 389.36"><defs><style>.cls-1{fill:#231f20;}.cls-2{fill:#fff;}.cls-3{fill:#deff00;}.cls-4{fill:#333132;}</style></defs><g id="Layer_1"><path class="cls-4" d="M296.84,273.97l17.09-38.55-143.02-29.3-28.4-28.14-5.65-.9-24.8-26.6-6.81-.77-25.44-27.24-6.3-.64-46.39-47.8,322.8,23.9,9.77-24.8,7.2-5.4c7.07-5.27,15.81-8.22,24.54-8.22,6.04,0,11.82,1.29,17.22,3.86l10.41,4.88c5.53,2.57,9.64,7.32,11.31,13.11l4.63,15.55,308.79-22.87-46.39,47.8-6.3.64-25.44,27.24-6.81.77-24.8,26.6-5.65.9-28.27,28.14-143.15,29.3,17.09,38.55-88.54,40.86-88.67-40.86Z"/><path class="cls-2" d="M385.51,326.52l-102.67-47.29,16.06-36.11-133.26-27.24-28.14-28.01-5.91-.9-24.67-26.34-6.81-.77-25.44-27.24-6.17-.64L0,61.3l342.84,25.44,7.97-20.3,9.64-7.2c8.87-6.68,19.92-10.28,30.97-10.28,7.58,0,14.91,1.67,21.85,4.88l10.41,4.88c8.22,3.86,14.39,11.05,16.96,19.79l2.18,7.32,328.19-24.54-68.49,70.68-6.17.64-25.44,27.24-6.81.77-24.54,26.34-5.91.9-28.27,28.01-133.26,27.24,16.06,36.11-102.67,47.29ZM310.97,268.7l74.53,34.44,74.53-34.44-18.25-41.12,153.05-31.35,28.53-28.27,5.4-.9,24.93-26.73,6.81-.77,25.44-27.24,6.43-.64,24.16-24.93-289.26,21.46-7.07-23.9c-.9-2.83-2.83-5.27-5.53-6.43l-10.41-4.88c-3.98-1.93-8.35-2.83-12.72-2.83-6.55,0-12.98,2.18-18.12,6.04l-4.88,3.6-11.57,29.3L54.36,86.74l24.16,24.93,6.43.64,25.44,27.24,6.81.77,24.93,26.73,5.4.9,28.53,28.27,153.05,31.35-18.12,41.12Z"/><polygon class="cls-2" points="385.51 8.48 206.76 40.35 210.87 277.44 385.51 379.59 560.14 277.44 564.25 40.35 385.51 8.48"/><path class="cls-2" d="M385.51,389.36l-182.99-107.04-4.24-248.91L385.51,0l187.23,33.41-4.37,248.91-182.86,107.04ZM219.22,272.55l166.28,97.28,166.28-97.28,3.98-225.13-170.26-30.33-170.14,30.33,3.86,225.13Z"/><polygon class="cls-3" points="384.86 9.64 208.04 41.25 212.28 274.99 384.86 376 556.41 274.22 561.94 41.25 384.86 9.64"/><path class="cls-1" d="M385.51,21.07l166.15,29.56-3.86,219.61-162.3,95.09-162.3-95.09-3.86-219.61,166.15-29.56M385.51,8.48l-178.75,31.87,4.11,237.09,174.63,102.16,174.63-102.16,4.11-237.09-178.75-31.87h0Z"/><path class="cls-4" d="M296.84,273.97l17.09-38.55-143.02-29.3-28.4-28.14-5.65-.9-24.8-26.6-6.81-.77-25.44-27.24-6.3-.64-46.39-47.8,322.8,23.9,9.77-24.8,7.2-5.4c7.07-5.27,15.81-8.22,24.54-8.22,6.04,0,11.82,1.29,17.22,3.86l10.41,4.88c5.53,2.57,9.64,7.32,11.31,13.11l4.63,15.55,308.79-22.87-46.39,47.8-6.3.64-25.44,27.24-6.81.77-24.8,26.6-5.65.9-28.27,28.14-143.15,29.3,17.09,38.55-88.54,40.86-88.67-40.86Z"/><path class="cls-4" d="M385.51,316.63l-90.85-41.89,16.96-38.16-141.61-28.91-28.27-28.01-5.65-.9-24.8-26.6-6.81-.77-25.44-27.24-6.3-.77-49.86-51.4,326.01,24.16,9.51-24.03,7.58-5.65c7.32-5.53,16.45-8.48,25.57-8.48,6.3,0,12.34,1.29,17.99,3.98l10.41,4.88c5.91,2.7,10.41,7.97,12.21,14.14l4.24,14.26,311.87-23.13-49.86,51.4-6.3.64-25.44,27.24-6.81.77-24.8,26.47-5.65.9-28.27,28.01-141.61,28.91,16.96,38.16-90.98,42.02ZM299.15,273.07l86.35,39.84,86.35-39.84-17.35-38.94,144.69-29.56,28.4-28.14,5.65-.9,24.8-26.6,6.81-.77,25.44-27.24,6.3-.64,42.79-44.2-305.58,22.62-5.01-16.96c-1.54-5.27-5.4-9.77-10.41-12.08l-10.41-4.88c-5.27-2.44-10.79-3.73-16.58-3.73-8.48,0-16.83,2.83-23.52,7.84l-6.81,5.14-10.02,25.57L31.48,76.07l42.79,44.2,6.3.64,25.44,27.24,6.81.77,24.8,26.6,5.65.9,28.4,28.14,144.69,29.56-17.22,38.94Z"/><path class="cls-2" d="M716.4,86.87l-305.71,22.62-6.81-13.36,9.12-5.4c2.18-1.29,5.14-1.03,7.07.64l2.83,2.44-2.83-9.38c-.77-2.83-2.83-5.14-5.53-6.43l-10.41-4.88c-10.02-4.63-21.85-3.47-30.84,3.21l-4.75,3.6-11.57,29.3L54.61,86.87l23.9,24.67,91.36,10.15-77.87-1.8,18.38,19.66,71.7,8.1-59.11-1.29,19.28,20.69,52.81,8.35-41.25-1.41,22.49,22.23,153.05,31.23-18.25,41.12,74.4,34.31,74.4-34.31-18.25-41.12,153.17-31.35,22.49-22.23-41.25,1.41,52.81-8.35,19.28-20.69-59.11,1.29,71.7-8.1,18.38-19.66-77.87,1.8,91.36-10.15,23.77-24.54Z"/><path class="cls-4" d="M360.83,258.8v3.98h-14.39l7.32-7.97c1.03-1.16,2.06-2.7,2.06-4.37,0-1.16-.77-2.31-2.06-2.31s-1.93,1.03-1.93,2.18c0,.26,0,.51.13.77h-5.14c.13-4.11,2.7-6.81,6.94-6.81,3.73,0,6.94,2.44,6.94,6.3,0,2.57-1.03,4.11-2.96,5.65l-2.83,2.57h5.91Z"/><path class="cls-4" d="M382.42,253.92c0,4.63-2.31,9.64-7.58,9.64s-7.58-5.01-7.58-9.64,2.31-9.64,7.58-9.64,7.58,4.88,7.58,9.64ZM371.88,253.79c0,1.67.51,5.53,2.96,5.53s2.96-3.86,2.96-5.53-.51-5.53-2.96-5.53c-2.31,0-2.96,3.86-2.96,5.53Z"/><path class="cls-4" d="M403.5,253.92c0,4.63-2.31,9.64-7.58,9.64s-7.58-5.01-7.58-9.64,2.31-9.64,7.58-9.64,7.58,4.88,7.58,9.64ZM392.96,253.79c0,1.67.51,5.53,2.96,5.53s2.96-3.86,2.96-5.53-.51-5.53-2.96-5.53-2.96,3.86-2.96,5.53Z"/><path class="cls-4" d="M412.49,262.79l5.14-6.04h0c-.77.39-1.54.51-2.57.51-3.47,0-5.78-2.96-5.78-6.3,0-4.37,3.6-6.81,7.71-6.81,1.67,0,3.73.39,5.14,1.54s2.44,3.08,2.44,4.88c0,2.57-1.29,5.01-2.83,7.07l-3.86,5.01h-5.4v.13ZM414.16,250.84c0,1.67,1.29,2.96,2.83,2.96,1.67,0,2.96-1.29,2.96-2.96s-1.29-2.96-2.96-2.96c-1.54,0-2.83,1.29-2.83,2.96Z"/><path class="cls-1" d="M225.52,180.29h-18.5c-5.01,0-7.58-1.93-7.58-6.94v-30.33c0-5.14,2.57-7.07,7.58-7.07h18.5v10.15h-14.65v24.03h14.65v10.15Z"/><path class="cls-1" d="M265.87,180.29h-25.83v-44.33h11.44v34.18h14.39v10.15h0Z"/><path class="cls-1" d="M306.09,180.29h-25.83v-44.33h25.83v10.15h-14.39v6.81h14.39v10.15h-14.39v7.2h14.39v10.02Z"/><path class="cls-1" d="M350.81,157.16c0,8.74-4.63,16.71-9.38,23.26h-11.31c-4.37-6.43-9.51-13.88-9.51-22.87v-21.46h11.44v19.66c0,7.07,3.34,13.11,3.86,14.01,1.67-2.96,3.47-8.87,3.47-14.01v-19.66h11.44v21.07h0Z"/><path class="cls-1" d="M391.8,180.29h-25.83v-44.33h25.83v10.15h-14.39v6.81h14.39v10.15h-14.39v7.2h14.39v10.02Z"/><path class="cls-1" d="M432.67,180.29h-25.83v-44.33h11.44v34.18h14.39v10.15Z"/><path class="cls-1" d="M477.38,180.29h-11.44v-11.95h-7.32v11.95h-11.44v-37.01c0-5.27,2.83-7.32,7.84-7.32h22.36v44.33ZM465.95,158.31v-12.21h-7.32v12.21h7.32Z"/><path class="cls-1" d="M525.83,180.29h-9.51l-11.69-20.3v20.3h-11.44v-44.33h10.02l11.18,19.4v-19.4h11.44v44.33Z"/><path class="cls-1" d="M571.7,173.35c0,4.75-2.7,6.94-7.71,6.94h-22.62v-44.33h22.62c4.75,0,7.71,1.93,7.71,7.07v30.33ZM560.14,170.14v-24.03h-7.32v24.03h7.32Z"/></g></svg>